<mxfile host="app.diagrams.net" modified="2022-05-19T01:58:18.139Z" agent="5.0 (Windows NT 10.0; Win64; x64) AppleWebKit/537.36 (KHTML, like Gecko) Chrome/101.0.4951.67 Safari/537.36" etag="yRhdmcvO7-oMAlvxoyrJ" version="18.0.3" type="github">
  <diagram id="7IhPsxdKTLaDDIJBGnLp" name="Page-1">
    <mxGraphModel dx="1038" dy="585" grid="1" gridSize="10" guides="1" tooltips="1" connect="1" arrows="1" fold="1" page="1" pageScale="1" pageWidth="827" pageHeight="1169" math="0" shadow="0">
      <root>
        <mxCell id="0" />
        <mxCell id="1" parent="0" />
        <mxCell id="AU2GzeCB9dlMnJm2DEL--1" value="&lt;font style=&quot;font-size: 18px;&quot;&gt;Match&lt;/font&gt;" style="rounded=0;whiteSpace=wrap;html=1;" vertex="1" parent="1">
          <mxGeometry x="180" y="40" width="80" height="60" as="geometry" />
        </mxCell>
        <mxCell id="AU2GzeCB9dlMnJm2DEL--2" value="&lt;font style=&quot;font-size: 18px;&quot;&gt;Match&lt;/font&gt;" style="rounded=0;whiteSpace=wrap;html=1;" vertex="1" parent="1">
          <mxGeometry x="310" y="40" width="80" height="60" as="geometry" />
        </mxCell>
        <mxCell id="AU2GzeCB9dlMnJm2DEL--3" value="&lt;font style=&quot;font-size: 18px;&quot;&gt;Match&lt;/font&gt;" style="rounded=0;whiteSpace=wrap;html=1;" vertex="1" parent="1">
          <mxGeometry x="440" y="40" width="80" height="60" as="geometry" />
        </mxCell>
        <mxCell id="AU2GzeCB9dlMnJm2DEL--4" value="&lt;font style=&quot;font-size: 18px;&quot;&gt;Match&lt;/font&gt;" style="rounded=0;whiteSpace=wrap;html=1;" vertex="1" parent="1">
          <mxGeometry x="570" y="40" width="80" height="60" as="geometry" />
        </mxCell>
        <mxCell id="AU2GzeCB9dlMnJm2DEL--9" value="" style="group" vertex="1" connectable="0" parent="1">
          <mxGeometry x="190" y="140" width="60" height="80" as="geometry" />
        </mxCell>
        <mxCell id="AU2GzeCB9dlMnJm2DEL--5" value="" style="rounded=0;whiteSpace=wrap;html=1;fontSize=18;" vertex="1" parent="AU2GzeCB9dlMnJm2DEL--9">
          <mxGeometry width="60" height="20" as="geometry" />
        </mxCell>
        <mxCell id="AU2GzeCB9dlMnJm2DEL--6" value="" style="rounded=0;whiteSpace=wrap;html=1;fontSize=18;" vertex="1" parent="AU2GzeCB9dlMnJm2DEL--9">
          <mxGeometry y="20" width="60" height="20" as="geometry" />
        </mxCell>
        <mxCell id="AU2GzeCB9dlMnJm2DEL--7" value="" style="rounded=0;whiteSpace=wrap;html=1;fontSize=18;" vertex="1" parent="AU2GzeCB9dlMnJm2DEL--9">
          <mxGeometry y="40" width="60" height="20" as="geometry" />
        </mxCell>
        <mxCell id="AU2GzeCB9dlMnJm2DEL--8" value="" style="rounded=0;whiteSpace=wrap;html=1;fontSize=18;" vertex="1" parent="AU2GzeCB9dlMnJm2DEL--9">
          <mxGeometry y="60" width="60" height="20" as="geometry" />
        </mxCell>
        <mxCell id="AU2GzeCB9dlMnJm2DEL--52" value="FIFO" style="text;html=1;strokeColor=none;fillColor=none;align=center;verticalAlign=middle;whiteSpace=wrap;rounded=0;fontSize=18;" vertex="1" parent="AU2GzeCB9dlMnJm2DEL--9">
          <mxGeometry y="15" width="60" height="30" as="geometry" />
        </mxCell>
        <mxCell id="AU2GzeCB9dlMnJm2DEL--10" value="" style="group" vertex="1" connectable="0" parent="1">
          <mxGeometry x="320" y="140" width="60" height="80" as="geometry" />
        </mxCell>
        <mxCell id="AU2GzeCB9dlMnJm2DEL--11" value="" style="rounded=0;whiteSpace=wrap;html=1;fontSize=18;" vertex="1" parent="AU2GzeCB9dlMnJm2DEL--10">
          <mxGeometry width="60" height="20" as="geometry" />
        </mxCell>
        <mxCell id="AU2GzeCB9dlMnJm2DEL--12" value="" style="rounded=0;whiteSpace=wrap;html=1;fontSize=18;" vertex="1" parent="AU2GzeCB9dlMnJm2DEL--10">
          <mxGeometry y="20" width="60" height="20" as="geometry" />
        </mxCell>
        <mxCell id="AU2GzeCB9dlMnJm2DEL--13" value="" style="rounded=0;whiteSpace=wrap;html=1;fontSize=18;" vertex="1" parent="AU2GzeCB9dlMnJm2DEL--10">
          <mxGeometry y="40" width="60" height="20" as="geometry" />
        </mxCell>
        <mxCell id="AU2GzeCB9dlMnJm2DEL--14" value="" style="rounded=0;whiteSpace=wrap;html=1;fontSize=18;" vertex="1" parent="AU2GzeCB9dlMnJm2DEL--10">
          <mxGeometry y="60" width="60" height="20" as="geometry" />
        </mxCell>
        <mxCell id="AU2GzeCB9dlMnJm2DEL--53" value="FIFO" style="text;html=1;strokeColor=none;fillColor=none;align=center;verticalAlign=middle;whiteSpace=wrap;rounded=0;fontSize=18;" vertex="1" parent="AU2GzeCB9dlMnJm2DEL--10">
          <mxGeometry y="15" width="60" height="30" as="geometry" />
        </mxCell>
        <mxCell id="AU2GzeCB9dlMnJm2DEL--27" value="" style="group" vertex="1" connectable="0" parent="1">
          <mxGeometry x="450" y="140" width="60" height="80" as="geometry" />
        </mxCell>
        <mxCell id="AU2GzeCB9dlMnJm2DEL--28" value="" style="rounded=0;whiteSpace=wrap;html=1;fontSize=18;" vertex="1" parent="AU2GzeCB9dlMnJm2DEL--27">
          <mxGeometry width="60" height="20" as="geometry" />
        </mxCell>
        <mxCell id="AU2GzeCB9dlMnJm2DEL--29" value="" style="rounded=0;whiteSpace=wrap;html=1;fontSize=18;" vertex="1" parent="AU2GzeCB9dlMnJm2DEL--27">
          <mxGeometry y="20" width="60" height="20" as="geometry" />
        </mxCell>
        <mxCell id="AU2GzeCB9dlMnJm2DEL--30" value="" style="rounded=0;whiteSpace=wrap;html=1;fontSize=18;" vertex="1" parent="AU2GzeCB9dlMnJm2DEL--27">
          <mxGeometry y="40" width="60" height="20" as="geometry" />
        </mxCell>
        <mxCell id="AU2GzeCB9dlMnJm2DEL--31" value="" style="rounded=0;whiteSpace=wrap;html=1;fontSize=18;" vertex="1" parent="AU2GzeCB9dlMnJm2DEL--27">
          <mxGeometry y="60" width="60" height="20" as="geometry" />
        </mxCell>
        <mxCell id="AU2GzeCB9dlMnJm2DEL--54" value="FIFO" style="text;html=1;strokeColor=none;fillColor=none;align=center;verticalAlign=middle;whiteSpace=wrap;rounded=0;fontSize=18;" vertex="1" parent="AU2GzeCB9dlMnJm2DEL--27">
          <mxGeometry y="15" width="60" height="30" as="geometry" />
        </mxCell>
        <mxCell id="AU2GzeCB9dlMnJm2DEL--32" value="" style="group" vertex="1" connectable="0" parent="1">
          <mxGeometry x="580" y="140" width="60" height="80" as="geometry" />
        </mxCell>
        <mxCell id="AU2GzeCB9dlMnJm2DEL--33" value="" style="rounded=0;whiteSpace=wrap;html=1;fontSize=18;" vertex="1" parent="AU2GzeCB9dlMnJm2DEL--32">
          <mxGeometry width="60" height="20" as="geometry" />
        </mxCell>
        <mxCell id="AU2GzeCB9dlMnJm2DEL--34" value="" style="rounded=0;whiteSpace=wrap;html=1;fontSize=18;" vertex="1" parent="AU2GzeCB9dlMnJm2DEL--32">
          <mxGeometry y="20" width="60" height="20" as="geometry" />
        </mxCell>
        <mxCell id="AU2GzeCB9dlMnJm2DEL--35" value="" style="rounded=0;whiteSpace=wrap;html=1;fontSize=18;" vertex="1" parent="AU2GzeCB9dlMnJm2DEL--32">
          <mxGeometry y="40" width="60" height="20" as="geometry" />
        </mxCell>
        <mxCell id="AU2GzeCB9dlMnJm2DEL--36" value="" style="rounded=0;whiteSpace=wrap;html=1;fontSize=18;" vertex="1" parent="AU2GzeCB9dlMnJm2DEL--32">
          <mxGeometry y="60" width="60" height="20" as="geometry" />
        </mxCell>
        <mxCell id="AU2GzeCB9dlMnJm2DEL--55" value="FIFO" style="text;html=1;strokeColor=none;fillColor=none;align=center;verticalAlign=middle;whiteSpace=wrap;rounded=0;fontSize=18;" vertex="1" parent="AU2GzeCB9dlMnJm2DEL--32">
          <mxGeometry y="15" width="60" height="30" as="geometry" />
        </mxCell>
        <mxCell id="AU2GzeCB9dlMnJm2DEL--37" value="" style="endArrow=classic;html=1;rounded=0;fontSize=18;exitX=0.5;exitY=1;exitDx=0;exitDy=0;entryX=0.5;entryY=0;entryDx=0;entryDy=0;" edge="1" parent="1" source="AU2GzeCB9dlMnJm2DEL--1" target="AU2GzeCB9dlMnJm2DEL--5">
          <mxGeometry width="50" height="50" relative="1" as="geometry">
            <mxPoint x="210" y="150" as="sourcePoint" />
            <mxPoint x="260" y="100" as="targetPoint" />
          </mxGeometry>
        </mxCell>
        <mxCell id="AU2GzeCB9dlMnJm2DEL--38" value="" style="endArrow=classic;html=1;rounded=0;fontSize=18;exitX=0.5;exitY=1;exitDx=0;exitDy=0;" edge="1" parent="1" source="AU2GzeCB9dlMnJm2DEL--1">
          <mxGeometry width="50" height="50" relative="1" as="geometry">
            <mxPoint x="250" y="160" as="sourcePoint" />
            <mxPoint x="270" y="120" as="targetPoint" />
          </mxGeometry>
        </mxCell>
        <mxCell id="AU2GzeCB9dlMnJm2DEL--40" value="" style="endArrow=classic;html=1;rounded=0;fontSize=18;exitX=0.5;exitY=1;exitDx=0;exitDy=0;entryX=0.5;entryY=0;entryDx=0;entryDy=0;" edge="1" parent="1" source="AU2GzeCB9dlMnJm2DEL--2" target="AU2GzeCB9dlMnJm2DEL--11">
          <mxGeometry width="50" height="50" relative="1" as="geometry">
            <mxPoint x="340" y="160" as="sourcePoint" />
            <mxPoint x="390" y="110" as="targetPoint" />
          </mxGeometry>
        </mxCell>
        <mxCell id="AU2GzeCB9dlMnJm2DEL--42" value="" style="endArrow=classic;html=1;rounded=0;fontSize=18;exitX=0.5;exitY=1;exitDx=0;exitDy=0;" edge="1" parent="1" source="AU2GzeCB9dlMnJm2DEL--2">
          <mxGeometry width="50" height="50" relative="1" as="geometry">
            <mxPoint x="390" y="170" as="sourcePoint" />
            <mxPoint x="400" y="120" as="targetPoint" />
          </mxGeometry>
        </mxCell>
        <mxCell id="AU2GzeCB9dlMnJm2DEL--43" value="" style="endArrow=classic;html=1;rounded=0;fontSize=18;exitX=0.5;exitY=1;exitDx=0;exitDy=0;entryX=0.5;entryY=0;entryDx=0;entryDy=0;" edge="1" parent="1" source="AU2GzeCB9dlMnJm2DEL--3" target="AU2GzeCB9dlMnJm2DEL--28">
          <mxGeometry width="50" height="50" relative="1" as="geometry">
            <mxPoint x="540" y="150" as="sourcePoint" />
            <mxPoint x="590" y="100" as="targetPoint" />
          </mxGeometry>
        </mxCell>
        <mxCell id="AU2GzeCB9dlMnJm2DEL--44" value="" style="endArrow=classic;html=1;rounded=0;fontSize=18;exitX=0.5;exitY=1;exitDx=0;exitDy=0;" edge="1" parent="1" source="AU2GzeCB9dlMnJm2DEL--3">
          <mxGeometry width="50" height="50" relative="1" as="geometry">
            <mxPoint x="520" y="170" as="sourcePoint" />
            <mxPoint x="530" y="120" as="targetPoint" />
          </mxGeometry>
        </mxCell>
        <mxCell id="AU2GzeCB9dlMnJm2DEL--45" value="" style="endArrow=classic;html=1;rounded=0;fontSize=18;exitX=0.5;exitY=1;exitDx=0;exitDy=0;entryX=0.5;entryY=0;entryDx=0;entryDy=0;" edge="1" parent="1" source="AU2GzeCB9dlMnJm2DEL--4" target="AU2GzeCB9dlMnJm2DEL--33">
          <mxGeometry width="50" height="50" relative="1" as="geometry">
            <mxPoint x="680" y="160" as="sourcePoint" />
            <mxPoint x="730" y="110" as="targetPoint" />
          </mxGeometry>
        </mxCell>
        <mxCell id="AU2GzeCB9dlMnJm2DEL--46" value="" style="endArrow=classic;html=1;rounded=0;fontSize=18;exitX=0.5;exitY=1;exitDx=0;exitDy=0;" edge="1" parent="1" source="AU2GzeCB9dlMnJm2DEL--4">
          <mxGeometry width="50" height="50" relative="1" as="geometry">
            <mxPoint x="670" y="160" as="sourcePoint" />
            <mxPoint x="660" y="120" as="targetPoint" />
          </mxGeometry>
        </mxCell>
        <mxCell id="AU2GzeCB9dlMnJm2DEL--47" value="" style="group" vertex="1" connectable="0" parent="1">
          <mxGeometry x="250" y="260" width="60" height="80" as="geometry" />
        </mxCell>
        <mxCell id="AU2GzeCB9dlMnJm2DEL--48" value="" style="rounded=0;whiteSpace=wrap;html=1;fontSize=18;" vertex="1" parent="AU2GzeCB9dlMnJm2DEL--47">
          <mxGeometry width="60" height="20" as="geometry" />
        </mxCell>
        <mxCell id="AU2GzeCB9dlMnJm2DEL--49" value="" style="rounded=0;whiteSpace=wrap;html=1;fontSize=18;" vertex="1" parent="AU2GzeCB9dlMnJm2DEL--47">
          <mxGeometry y="20" width="60" height="20" as="geometry" />
        </mxCell>
        <mxCell id="AU2GzeCB9dlMnJm2DEL--50" value="" style="rounded=0;whiteSpace=wrap;html=1;fontSize=18;" vertex="1" parent="AU2GzeCB9dlMnJm2DEL--47">
          <mxGeometry y="40" width="60" height="20" as="geometry" />
        </mxCell>
        <mxCell id="AU2GzeCB9dlMnJm2DEL--51" value="" style="rounded=0;whiteSpace=wrap;html=1;fontSize=18;" vertex="1" parent="AU2GzeCB9dlMnJm2DEL--47">
          <mxGeometry y="60" width="60" height="20" as="geometry" />
        </mxCell>
        <mxCell id="AU2GzeCB9dlMnJm2DEL--56" value="FIFO" style="text;html=1;strokeColor=none;fillColor=none;align=center;verticalAlign=middle;whiteSpace=wrap;rounded=0;fontSize=18;" vertex="1" parent="AU2GzeCB9dlMnJm2DEL--47">
          <mxGeometry y="15" width="60" height="30" as="geometry" />
        </mxCell>
        <mxCell id="AU2GzeCB9dlMnJm2DEL--57" value="" style="endArrow=classic;html=1;rounded=0;fontSize=18;exitX=0.5;exitY=1;exitDx=0;exitDy=0;entryX=0.5;entryY=0;entryDx=0;entryDy=0;" edge="1" parent="1" source="AU2GzeCB9dlMnJm2DEL--8" target="AU2GzeCB9dlMnJm2DEL--48">
          <mxGeometry width="50" height="50" relative="1" as="geometry">
            <mxPoint x="190" y="280" as="sourcePoint" />
            <mxPoint x="240" y="230" as="targetPoint" />
          </mxGeometry>
        </mxCell>
        <mxCell id="AU2GzeCB9dlMnJm2DEL--58" value="" style="endArrow=classic;html=1;rounded=0;fontSize=18;exitX=0.5;exitY=1;exitDx=0;exitDy=0;" edge="1" parent="1" source="AU2GzeCB9dlMnJm2DEL--14">
          <mxGeometry width="50" height="50" relative="1" as="geometry">
            <mxPoint x="230" y="230" as="sourcePoint" />
            <mxPoint x="280" y="260" as="targetPoint" />
          </mxGeometry>
        </mxCell>
        <mxCell id="AU2GzeCB9dlMnJm2DEL--59" value="" style="group" vertex="1" connectable="0" parent="1">
          <mxGeometry x="510" y="260" width="60" height="80" as="geometry" />
        </mxCell>
        <mxCell id="AU2GzeCB9dlMnJm2DEL--60" value="" style="rounded=0;whiteSpace=wrap;html=1;fontSize=18;" vertex="1" parent="AU2GzeCB9dlMnJm2DEL--59">
          <mxGeometry width="60" height="20" as="geometry" />
        </mxCell>
        <mxCell id="AU2GzeCB9dlMnJm2DEL--61" value="" style="rounded=0;whiteSpace=wrap;html=1;fontSize=18;" vertex="1" parent="AU2GzeCB9dlMnJm2DEL--59">
          <mxGeometry y="20" width="60" height="20" as="geometry" />
        </mxCell>
        <mxCell id="AU2GzeCB9dlMnJm2DEL--62" value="" style="rounded=0;whiteSpace=wrap;html=1;fontSize=18;" vertex="1" parent="AU2GzeCB9dlMnJm2DEL--59">
          <mxGeometry y="40" width="60" height="20" as="geometry" />
        </mxCell>
        <mxCell id="AU2GzeCB9dlMnJm2DEL--63" value="" style="rounded=0;whiteSpace=wrap;html=1;fontSize=18;" vertex="1" parent="AU2GzeCB9dlMnJm2DEL--59">
          <mxGeometry y="60" width="60" height="20" as="geometry" />
        </mxCell>
        <mxCell id="AU2GzeCB9dlMnJm2DEL--64" value="FIFO" style="text;html=1;strokeColor=none;fillColor=none;align=center;verticalAlign=middle;whiteSpace=wrap;rounded=0;fontSize=18;" vertex="1" parent="AU2GzeCB9dlMnJm2DEL--59">
          <mxGeometry y="15" width="60" height="30" as="geometry" />
        </mxCell>
        <mxCell id="AU2GzeCB9dlMnJm2DEL--65" value="" style="endArrow=classic;html=1;rounded=0;fontSize=18;exitX=0.5;exitY=1;exitDx=0;exitDy=0;entryX=0.5;entryY=0;entryDx=0;entryDy=0;" edge="1" parent="1" source="AU2GzeCB9dlMnJm2DEL--31" target="AU2GzeCB9dlMnJm2DEL--60">
          <mxGeometry width="50" height="50" relative="1" as="geometry">
            <mxPoint x="230" y="230" as="sourcePoint" />
            <mxPoint x="290" y="270" as="targetPoint" />
          </mxGeometry>
        </mxCell>
        <mxCell id="AU2GzeCB9dlMnJm2DEL--66" value="" style="endArrow=classic;html=1;rounded=0;fontSize=18;exitX=0.5;exitY=1;exitDx=0;exitDy=0;entryX=0.5;entryY=0;entryDx=0;entryDy=0;" edge="1" parent="1" source="AU2GzeCB9dlMnJm2DEL--36" target="AU2GzeCB9dlMnJm2DEL--60">
          <mxGeometry width="50" height="50" relative="1" as="geometry">
            <mxPoint x="490" y="230" as="sourcePoint" />
            <mxPoint x="550" y="270" as="targetPoint" />
          </mxGeometry>
        </mxCell>
        <mxCell id="AU2GzeCB9dlMnJm2DEL--67" value="" style="group" vertex="1" connectable="0" parent="1">
          <mxGeometry x="384" y="380" width="60" height="80" as="geometry" />
        </mxCell>
        <mxCell id="AU2GzeCB9dlMnJm2DEL--68" value="" style="rounded=0;whiteSpace=wrap;html=1;fontSize=18;" vertex="1" parent="AU2GzeCB9dlMnJm2DEL--67">
          <mxGeometry width="60" height="20" as="geometry" />
        </mxCell>
        <mxCell id="AU2GzeCB9dlMnJm2DEL--69" value="" style="rounded=0;whiteSpace=wrap;html=1;fontSize=18;" vertex="1" parent="AU2GzeCB9dlMnJm2DEL--67">
          <mxGeometry y="20" width="60" height="20" as="geometry" />
        </mxCell>
        <mxCell id="AU2GzeCB9dlMnJm2DEL--70" value="" style="rounded=0;whiteSpace=wrap;html=1;fontSize=18;" vertex="1" parent="AU2GzeCB9dlMnJm2DEL--67">
          <mxGeometry y="40" width="60" height="20" as="geometry" />
        </mxCell>
        <mxCell id="AU2GzeCB9dlMnJm2DEL--71" value="" style="rounded=0;whiteSpace=wrap;html=1;fontSize=18;" vertex="1" parent="AU2GzeCB9dlMnJm2DEL--67">
          <mxGeometry y="60" width="60" height="20" as="geometry" />
        </mxCell>
        <mxCell id="AU2GzeCB9dlMnJm2DEL--72" value="FIFO" style="text;html=1;strokeColor=none;fillColor=none;align=center;verticalAlign=middle;whiteSpace=wrap;rounded=0;fontSize=18;" vertex="1" parent="AU2GzeCB9dlMnJm2DEL--67">
          <mxGeometry y="15" width="60" height="30" as="geometry" />
        </mxCell>
        <mxCell id="AU2GzeCB9dlMnJm2DEL--73" value="" style="endArrow=classic;html=1;rounded=0;fontSize=18;exitX=0.5;exitY=1;exitDx=0;exitDy=0;entryX=0.5;entryY=0;entryDx=0;entryDy=0;" edge="1" parent="1" source="AU2GzeCB9dlMnJm2DEL--51" target="AU2GzeCB9dlMnJm2DEL--68">
          <mxGeometry width="50" height="50" relative="1" as="geometry">
            <mxPoint x="340" y="380" as="sourcePoint" />
            <mxPoint x="390" y="330" as="targetPoint" />
          </mxGeometry>
        </mxCell>
        <mxCell id="AU2GzeCB9dlMnJm2DEL--74" value="" style="endArrow=classic;html=1;rounded=0;fontSize=18;exitX=0.5;exitY=1;exitDx=0;exitDy=0;entryX=0.5;entryY=0;entryDx=0;entryDy=0;" edge="1" parent="1" source="AU2GzeCB9dlMnJm2DEL--63" target="AU2GzeCB9dlMnJm2DEL--68">
          <mxGeometry width="50" height="50" relative="1" as="geometry">
            <mxPoint x="290" y="350" as="sourcePoint" />
            <mxPoint x="424" y="390" as="targetPoint" />
          </mxGeometry>
        </mxCell>
        <mxCell id="AU2GzeCB9dlMnJm2DEL--75" value="&lt;font style=&quot;font-size: 18px;&quot;&gt;Collector&lt;br&gt;&lt;/font&gt;" style="rounded=0;whiteSpace=wrap;html=1;" vertex="1" parent="1">
          <mxGeometry x="339.5" y="510" width="149" height="60" as="geometry" />
        </mxCell>
        <mxCell id="AU2GzeCB9dlMnJm2DEL--76" value="" style="endArrow=classic;html=1;rounded=0;fontSize=18;exitX=0.5;exitY=1;exitDx=0;exitDy=0;entryX=0.5;entryY=0;entryDx=0;entryDy=0;" edge="1" parent="1" source="AU2GzeCB9dlMnJm2DEL--71" target="AU2GzeCB9dlMnJm2DEL--75">
          <mxGeometry width="50" height="50" relative="1" as="geometry">
            <mxPoint x="530" y="510" as="sourcePoint" />
            <mxPoint x="580" y="460" as="targetPoint" />
          </mxGeometry>
        </mxCell>
      </root>
    </mxGraphModel>
  </diagram>
</mxfile>
